<svg width="80" height="81" fill="none" xmlns="http://www.w3.org/2000/svg"><path d="M69.267 36.96a12.124 12.124 0 00-20.384-7.228H31.1a12.14 12.14 0 00-8.328-3.33A12.157 12.157 0 0010.698 36.96l-3.18 25.38c-.533 6.476 10.874 6.66 13.005 2.198l5.147-8.162a7.195 7.195 0 015.978-3.83h16.654a7.062 7.062 0 016.028 3.83l5.145 8.16c2.133 4.43 13.54 4.28 13.007-2.196l-3.215-25.38z" stroke="#fff" stroke-linecap="round" stroke-linejoin="round"/><path d="M39.975 22.977a1.25 1.25 0 100-2.5 1.25 1.25 0 000 2.5zm0-7.457a1.25 1.25 0 100-2.5 1.25 1.25 0 000 2.5z" fill="#fff"/></svg>