<svg width="80" height="81" fill="none" xmlns="http://www.w3.org/2000/svg"><path d="M19.5 33.025c0 2.55 2.025 4.33 4.75 4.33s4.725-1.78 4.725-4.33-2-4.26-4.725-4.26c-2.725 0-4.75 1.715-4.75 4.26zm-.96 13.34c0 2.945 2.46 4.92 5.71 4.92 3.23 0 5.715-1.975 5.715-4.92S27.48 41.4 24.25 41.4c-3.25 0-5.71 2.02-5.71 4.965z" fill="#fff"/><path d="M10 10A10 10 0 000 20v40a10 10 0 0010 10h60a10 10 0 0010-10V20a10 10 0 00-10-10H10zm25.85 36.74c0 5.205-4.635 8.83-11.665 8.83-7.03 0-11.56-3.6-11.56-8.81 0-4.77 3.56-6.92 6.285-7.47v-.265c-2.55-.77-5.1-2.79-5.1-6.655 0-4.57 4.155-7.935 10.44-7.935 6.265 0 10.415 3.365 10.415 7.935 0 3.91-2.615 5.91-5.1 6.655v.265c2.725.55 6.285 2.725 6.285 7.45zM60.51 25h6.53l-10.7 12.92L67.5 54.995h-7.14l-8.395-13.12-3.075 3.495v9.625h-5.94V25h5.935v13.425h.285L60.51 25z" fill="#fff"/></svg>