<svg width="80" height="81" fill="none" xmlns="http://www.w3.org/2000/svg"><path d="M34.444 12.528a12.222 12.222 0 10-24.443 0 12.222 12.222 0 0024.443 0zm-20 0a7.778 7.778 0 1115.555 0 7.778 7.778 0 01-15.555 0zM6.667 29.194h18.59a16.558 16.558 0 00-1.59 4.445h-17a2.222 2.222 0 00-2.223 2.222v2.222c0 5.6 4.885 11.618 13.76 13.022a11.275 11.275 0 00-3.47 3.796C5.355 52.363 0 45.136 0 38.083v-2.222a6.667 6.667 0 016.667-6.667zm23.906 0A12.201 12.201 0 0140 24.75a12.195 12.195 0 0111.76 8.889 12.236 12.236 0 01-17.302 14.23 12.222 12.222 0 01-6.32-13.83 12.213 12.213 0 012.435-4.845zm2.4 4.445a7.782 7.782 0 104.413-3.997 7.775 7.775 0 00-4.413 3.997zM65.267 54.9a11.17 11.17 0 00-3.471-3.791c8.87-1.409 13.76-7.431 13.76-13.027V35.86a2.223 2.223 0 00-2.223-2.222h-17a16.56 16.56 0 00-1.586-4.445h18.586A6.667 6.667 0 0180 35.861v2.222c0 7.053-5.36 14.276-14.733 16.818zm-5.325.387a6.636 6.636 0 00-4.386-1.65H24.444a6.647 6.647 0 00-6.666 6.667v2.223c0 8.76 8.266 17.777 22.222 17.777 13.956 0 22.222-9.017 22.222-17.777v-2.223c0-2-.88-3.795-2.28-5.022v.005zm-37.72 5.017a2.222 2.222 0 012.222-2.222h31.112a2.222 2.222 0 012.222 2.222v2.223c0 6.39-6.365 13.333-17.778 13.333-11.413 0-17.778-6.942-17.778-13.333v-2.223zm35.556-60a12.222 12.222 0 110 24.445 12.222 12.222 0 010-24.445zm0 4.445a7.778 7.778 0 100 15.555 7.778 7.778 0 000-15.555z" fill="#fff"/></svg>